<svg width="129" height="30" viewBox="0 0 129 30" fill="none" xmlns="http://www.w3.org/2000/svg">
<g clip-path="url(#clip0_5402_3621)">
<path fill-rule="evenodd" clip-rule="evenodd" d="M109.359 3.59473C108.027 3.59473 108.153 15.3793 108.153 16.6044C108.153 17.2462 108.027 26.0554 109.042 26.0554H112.087C112.405 26.0554 113.103 26.1721 113.103 25.7054C113.103 25.4137 112.024 21.7967 112.024 14.5626C112.024 8.02853 113.229 4.23647 113.229 4.06145C113.229 3.47805 112.405 3.59473 112.087 3.59473H109.359ZM103.712 6.57004C102.633 6.57004 101.808 9.0203 100.476 9.0203C100.413 9.0203 100.222 8.96196 99.9049 8.90363C99.5877 8.84528 99.207 8.78695 98.6994 8.78695C94.8924 8.78695 92.5447 10.8872 92.5447 14.3292C92.5447 17.1878 94.6386 18.3546 94.6386 18.938C94.6386 19.6964 91.3392 19.9881 91.3392 23.0801C91.3392 25.2387 93.2427 26.4638 95.4634 26.4638C96.5421 26.4638 97.5573 26.1138 98.4456 25.8221C99.3973 25.472 100.286 25.122 101.174 25.122C102.76 25.122 102.76 26.4638 103.522 26.4638C104.346 26.4638 105.489 23.4885 105.489 22.7884C105.489 21.855 103.141 21.2716 102.506 21.2716C99.778 21.2716 97.4304 22.6134 96.2248 22.6134C95.7172 22.6134 95.2096 22.205 95.2096 21.68C95.2096 20.9216 97.1131 20.0465 98.6994 20.0465C102.951 20.0465 104.917 17.1295 104.917 14.3875C104.917 11.5289 103.395 11.0038 103.395 10.2454C103.395 8.84528 106.123 9.66204 106.123 8.90363C106.123 8.43691 104.537 6.57004 103.712 6.57004ZM54.9189 8.32023C52.381 8.43691 52.6348 9.37034 52.6348 19.113C52.6348 26.8722 53.2693 26.0554 54.2845 26.0554H56.5052C56.8224 26.0554 57.3301 26.1138 57.3301 25.7054C57.3301 24.947 56.5686 23.9552 56.5686 18.6463C56.5686 14.7376 57.33 12.2873 59.4873 12.2873C61.835 12.2873 61.835 16.021 61.835 17.5962C61.835 20.1048 60.7563 25.4137 60.7563 25.8221C60.7563 26.1721 61.2005 26.0554 61.7715 26.0554H64.3095C65.2613 26.0554 65.3882 25.9971 65.3882 16.5461C65.3882 12.229 66.3399 12.2873 67.3551 12.2873C68.4338 12.2873 70.4007 12.8124 70.4007 17.8296C70.4007 22.2634 69.3221 25.1803 69.3221 25.6471C69.3221 26.1138 70.0835 26.0554 70.4007 26.0554H72.3042C73.1291 26.0554 74.2712 26.9305 74.2712 18.938C74.2712 15.5543 74.3346 9.19532 69.0683 9.19532C68.0531 9.19532 67.1648 9.54536 66.4668 9.95374C65.7689 10.3038 65.1344 10.4204 64.7537 10.4204C64.0557 10.4204 63.104 9.19532 61.7081 9.19532C60.5025 9.19532 59.6777 9.48702 59.0432 9.77872C58.4087 10.0704 58.028 10.4204 57.6473 10.4204C57.3935 10.4204 57.0763 10.1871 57.0763 9.95374C57.0763 9.54536 57.3935 9.07864 57.3935 8.78695C57.3935 8.37857 56.8224 8.32023 56.188 8.32023H54.9189ZM43.0538 8.78695C38.422 9.07864 36.3281 13.4541 36.3281 17.5962C36.3281 23.7802 40.1986 26.4638 43.498 26.4638C46.7974 26.4638 50.7313 23.7802 50.7313 17.5962C50.7313 13.3374 48.5105 8.78695 43.498 8.78695H43.0538ZM83.8521 8.78695C79.9817 8.78695 76.1747 11.9373 76.1747 18.3546C76.1747 22.5551 78.332 26.4638 83.408 26.4638C86.8977 26.4638 89.6895 24.5386 89.6895 21.1549C89.6895 20.9799 89.6261 19.5798 89.1819 19.5798C88.8012 19.5798 88.7378 22.9051 84.0425 22.9051C82.6466 22.9051 80.4893 21.9717 80.4893 20.7465C80.4893 18.0046 89.6895 19.2297 89.6895 13.5124C89.6895 10.4205 87.0246 8.78695 83.8521 8.78695ZM122.239 8.78695C118.432 8.78695 114.562 11.9373 114.562 18.3546C114.562 22.5551 116.719 26.4638 121.859 26.4638C125.285 26.4638 128.077 24.5386 128.077 21.1549C128.077 20.9799 128.013 19.5798 127.569 19.5798C127.188 19.5798 127.125 22.9051 122.43 22.9051C121.034 22.9051 118.813 21.9717 118.813 20.7465C118.813 18.0046 128.077 19.2297 128.077 13.5124C128.077 10.4205 125.412 8.78695 122.239 8.78695ZM98.6994 11.2955C100.286 11.2955 101.491 12.2873 101.491 13.9792C101.491 15.671 100.286 16.6628 98.6994 16.6628C97.0497 16.6628 95.9076 15.496 95.9076 13.9792C95.9076 12.2873 97.1766 11.2955 98.6994 11.2955ZM43.498 11.8789C46.3532 11.8789 47.1781 14.8543 47.1781 16.9545C47.1781 19.0547 46.4167 22.03 43.498 22.03C40.6427 22.03 39.8813 19.0547 39.8813 16.9545C39.8813 14.8543 40.7062 11.8789 43.498 11.8789ZM83.7252 11.8789C84.8039 11.8789 86.1363 12.6374 86.1363 13.9208C86.1363 15.2626 80.9334 16.3127 80.5527 16.3127C80.172 16.3127 80.0451 16.021 80.0451 15.7293C80.0451 14.2125 81.3776 11.8789 83.7252 11.8789ZM122.112 11.8789C123.191 11.8789 124.523 12.6374 124.523 13.9208C124.523 15.2626 119.321 16.3127 118.94 16.3127C118.623 16.3127 118.432 16.021 118.432 15.7293C118.432 14.2125 119.828 11.8789 122.112 11.8789Z" fill="#663300"/>
<path fill-rule="evenodd" clip-rule="evenodd" d="M18.8167 0.852783C19.8953 1.49451 20.974 2.31127 22.0526 3.2447C26.7479 7.56183 26.8748 12.6374 25.2251 16.8961C25.7962 16.1377 26.8114 15.146 27.319 14.6792L31.1894 11.0622C31.3163 10.9455 31.5067 10.8288 31.697 10.7705V3.36138C31.697 1.96123 30.4915 0.852783 28.9687 0.852783H18.8167ZM11.2027 2.13625C8.98197 2.25293 6.88812 3.12802 5.11152 4.76153C1.05072 8.49526 1.43142 13.6875 6.06327 18.0046C10.0606 21.6216 13.8042 21.9133 17.9919 20.8049C19.3243 20.3382 20.2126 20.6882 21.1009 21.505C22.0526 22.3801 22.1795 23.3718 21.4181 24.0719L15.898 29.1474H28.9687C30.4915 29.1474 31.697 28.039 31.697 26.6388V14.6209L26.1769 19.6964C25.352 20.4549 24.2734 20.2798 23.3851 19.4631C22.4968 18.6463 22.1161 17.8879 22.5602 16.4878C23.7658 12.6374 23.3216 9.13699 19.5147 5.63662C16.9132 3.2447 13.9945 2.01957 11.2027 2.13625ZM0.923828 17.3629V26.6388C0.923828 28.039 2.12937 29.1474 3.58872 29.1474H11.7103C11.7738 28.9724 11.8372 28.8557 12.0276 28.7391L15.898 25.1804C16.4056 24.6553 17.5477 23.7802 18.3091 23.2552C13.7407 24.772 8.22057 24.6553 3.46182 20.2798C2.44662 19.3464 1.62177 18.3546 0.923828 17.3629Z" fill="#FF7F00"/>
</g>
<defs>
<clipPath id="clip0_5402_3621">
<rect width="129" height="30" fill="white"/>
</clipPath>
</defs>
</svg>
